<svg width="89" height="89" viewBox="0 0 89 89" fill="none" xmlns="http://www.w3.org/2000/svg">
<path d="M39.6046 57.5599H15.1296C14.1506 57.5599 13.3496 56.7589 13.3496 55.7799V31.3049C13.3496 30.3259 14.1506 29.5249 15.1296 29.5249H39.6046C40.5836 29.5249 41.3846 30.3259 41.3846 31.3049V55.7799C41.3846 56.7589 40.5836 57.5599 39.6046 57.5599Z" fill="white"/>
<path d="M39.6048 16.6288L13.9995 42.2341C13.1629 43.0707 13.1629 44.4235 13.9995 45.2601L39.6048 70.8566C40.9487 72.2005 43.2538 71.2482 43.2538 69.3436V18.1418C43.2538 16.2372 40.9487 15.2849 39.6048 16.6288Z" fill="white"/>
<path d="M48.0779 56.9992C50.7568 54.2936 52.6703 50.7603 53.2844 46.9867C53.9163 43.1063 53.409 39.2526 51.7714 35.6837C50.8725 33.7346 49.582 31.9546 48.0779 30.4416C47.2591 29.6139 45.7461 29.5605 44.9273 30.4416C44.1085 31.3316 44.0551 32.7022 44.9273 33.5922C45.2388 33.9037 45.5325 34.2241 45.8173 34.5534C45.9419 34.7047 46.0665 34.856 46.1911 34.9984C46.3869 35.2298 45.8529 34.5356 46.1199 34.9005C46.2 35.0073 46.2712 35.1052 46.3513 35.212C46.8319 35.8795 47.2591 36.5826 47.6329 37.3124C47.7219 37.4815 47.802 37.6506 47.8821 37.8197C47.9533 37.9799 48.2203 38.6563 47.9622 37.971C48.1135 38.3537 48.2648 38.7364 48.3894 39.128C48.6475 39.9023 48.8433 40.7033 48.9857 41.5132C49.0035 41.62 49.1014 42.2519 49.0391 41.8247C48.9768 41.4064 49.0569 42.0205 49.0658 42.1362C49.1103 42.5634 49.1281 42.9906 49.137 43.4178C49.1548 44.2188 49.0658 45.002 49.0124 45.7941C49.0658 45.0198 49.0124 45.7496 48.9857 45.9276C48.9501 46.1323 48.9145 46.3281 48.87 46.5328C48.7899 46.9333 48.6831 47.3338 48.5763 47.7254C48.4695 48.0814 48.3627 48.4374 48.2292 48.7845C48.158 48.9803 48.0868 49.1672 48.0067 49.363C47.8732 49.7012 48.0779 49.2028 48.0868 49.1761C48.0156 49.3007 47.9711 49.4431 47.9088 49.5766C47.5172 50.4132 47.0633 51.2142 46.5382 51.9796C46.4047 52.1754 46.2712 52.3623 46.1288 52.5492C45.9152 52.8429 46.2178 52.4246 46.2445 52.4068C46.1377 52.5047 46.0487 52.6471 45.9597 52.7539C45.6393 53.1366 45.3011 53.5104 44.9451 53.8664C44.1263 54.6941 44.0551 56.1982 44.9451 57.017C45.8173 57.8091 47.1968 57.8803 48.0779 56.9992Z" fill="white"/>
<path d="M54.1296 63.7632C58.188 59.6781 61.036 54.3559 61.9883 48.6688C62.9584 42.8838 62.193 37.0276 59.7277 31.6965C58.366 28.7417 56.4258 26.0361 54.1296 23.731C53.3108 22.9033 51.7978 22.8499 50.979 23.731C50.1602 24.621 50.0979 25.9916 50.979 26.8816C51.4685 27.38 51.9491 27.8873 52.403 28.4213C52.5988 28.6527 52.7946 28.8841 52.9815 29.1244C53.0349 29.1867 53.0883 29.2668 53.1417 29.3291C52.759 28.9019 52.9459 29.071 53.026 29.1867C53.1417 29.338 53.2574 29.4982 53.3731 29.6495C54.1474 30.7264 54.8505 31.8656 55.4468 33.0493C55.5803 33.3074 55.7049 33.5744 55.8295 33.8325C55.9007 33.9838 55.9719 34.1351 56.0342 34.2864C56.0698 34.3665 56.0965 34.4377 56.1321 34.5178C56.2834 34.8738 55.9719 34.1351 56.0787 34.3843C56.319 34.9806 56.5415 35.5769 56.7462 36.191C57.1467 37.4014 57.4493 38.6385 57.6718 39.8934C57.6985 40.0536 57.7252 40.2138 57.7519 40.374C57.7786 40.552 57.8409 41.1216 57.7608 40.3918C57.7964 40.7211 57.8409 41.0415 57.8676 41.3708C57.921 42.0027 57.9566 42.6346 57.9744 43.2665C58.0011 44.557 57.8943 45.8297 57.7608 47.1202C57.7608 47.1024 57.8409 46.5239 57.7875 46.8977C57.7786 46.96 57.7697 47.0223 57.7608 47.0757C57.7341 47.2359 57.7074 47.3961 57.6807 47.5563C57.6273 47.8767 57.565 48.1971 57.4938 48.5264C57.3603 49.1494 57.209 49.7635 57.031 50.3776C56.853 51.0095 56.6394 51.6414 56.4169 52.2555C56.319 52.5314 56.2122 52.7984 56.0965 53.0654C55.963 53.4036 56.1677 52.9052 56.1766 52.8785C56.141 52.9497 56.1143 53.0298 56.0787 53.1099C56.0075 53.279 55.9274 53.4481 55.8473 53.6261C55.2243 54.9611 54.4945 56.2427 53.6579 57.4531C53.4532 57.7557 53.2396 58.0405 53.0171 58.3342C52.8035 58.6279 53.1061 58.2185 53.1328 58.1918C53.0616 58.2719 52.9993 58.3609 52.937 58.441C52.8124 58.5923 52.6967 58.7436 52.5721 58.8949C52.0648 59.5001 51.5397 60.0786 50.979 60.6304C50.1602 61.4581 50.089 62.9622 50.979 63.781C51.869 64.5731 53.2485 64.6443 54.1296 63.7632Z" fill="white"/>
</svg>
